<?xml version="1.0" encoding="UTF-8" standalone="no"?>
<svg
   height="486"
   width="486"
   viewBox="0.5 0.5 194.4 193.545"
   version="1.1"
   id="svg1"
   sodipodi:docname="facebook_white_mini.svg"
   inkscape:version="1.3.2 (091e20e, 2023-11-25, custom)"
   xmlns:inkscape="http://www.inkscape.org/namespaces/inkscape"
   xmlns:sodipodi="http://sodipodi.sourceforge.net/DTD/sodipodi-0.dtd"
   xmlns="http://www.w3.org/2000/svg"
   xmlns:svg="http://www.w3.org/2000/svg">
  <defs
     id="defs1">
    <clipPath
       clipPathUnits="userSpaceOnUse"
       id="clipPath12">
      <path
         id="path13"
         style="fill:#ff0000;fill-opacity:1;fill-rule:nonzero;stroke:none;stroke-width:0.4"
         d="M 0.5,0.49984376 V 194.04516 h 1000 V 0.49984376 Z M 146.78672,44.027188 c 1.69609,0.04114 2.62937,2.35366 0.67734,4.814844 -1.83822,2.317696 -3.16562,4.981876 -4.43593,7.63828 -1.03216,2.158376 -2.03886,4.330508 -2.9625,6.5375 -1.08195,2.58524 -2.12713,5.188708 -3.05157,7.834376 -0.96787,2.76996 -1.74793,5.602108 -2.62187,8.403124 -1.6274,7.153456 -3.51999,14.699048 -1.95313,22.075778 0.37532,1.76701 0.94773,3.53489 1.875,5.08516 2.47403,4.13627 4.98806,4.63829 9.17422,6.8625 3.24643,0.76161 6.45419,1.71108 9.73906,2.28438 0.12056,0.021 0.24269,0.0285 0.36329,0.0492 0.70146,-3.1909 3.21976,-6.10868 5.13515,-8.30625 2.79281,-3.20422 6.11613,-5.90411 9.17422,-8.856246 3.6528,-3.172488 7.2471,-6.413612 10.95859,-9.517188 7.44954,-6.229312 14.03821,-11.281448 21.76329,-17.06172 3.36444,-2.517456 8.45276,-6.26884 12.24218,-8.769532 0.51057,-0.33692 1.06078,-0.608916 1.59141,-0.91328 0.74315,-0.426264 1.39741,-0.631864 1.94453,-0.667188 2.37086,-0.153064 2.73719,2.887884 -0.32344,4.989064 -11.83175,8.122736 -23.31349,16.807916 -34.32343,26.017188 -3.66718,3.067392 -7.21767,6.271268 -10.82657,9.407032 -2.9982,2.89731 -6.2556,5.54862 -8.99453,8.69219 -0.95736,1.09879 -3.26957,3.32297 -3.9914,5.57968 2.97096,0.41244 5.97157,0.53804 8.95859,0.80079 6.53893,-3.22089 13.24016,-6.10273 19.9914,-8.84766 2.4159,-0.98226 3.93434,0.0168 4.01172,1.37578 4.58221,-1.60448 9.18996,-3.13178 13.84766,-4.50078 2.98703,-0.87795 5.97493,-1.82903 9.05234,-2.30078 1.02284,-0.1568 2.28254,-0.54739 3.34844,-0.5125 0.63954,0.0209 1.20968,0.19497 1.61641,0.66406 1.38027,1.59188 0.41402,4.19388 0.62109,6.29063 -9.0476,7.80269 -6.32667,5.95144 -17.38672,13.11875 -3.56227,2.30846 -7.16452,4.55684 -10.81484,6.72343 -0.92312,0.5479 -13.0626,7.69414 -15.94609,8.22344 -1.16227,0.21334 -2.25164,-0.71871 -3.37735,-1.07812 0.56455,-1.01359 1.04696,-2.08713 1.53828,-3.15391 -0.0186,0.006 -0.0256,0.006 0.002,-0.006 0.78687,-1.70826 1.60455,-3.39397 2.86875,-4.75547 0.69756,-0.75125 3.62697,-2.95031 7.10468,-5.46875 -4.29364,-0.13714 -8.66154,-0.40153 -13.01093,-0.70547 -1.3853,0.73712 -4.1926,2.18014 -6.50469,2.33828 -0.20307,0.14308 -0.40112,0.24082 -0.59375,0.27969 -0.78467,1.02012 -2.35413,1.49017 -4.01406,0.1 -1.6787,-1.40588 -4.02291,-2.27638 -5.03672,-4.21719 -0.0471,-0.0902 -0.076,-0.18016 -0.11875,-0.27031 -0.65123,-0.10699 -1.31442,-0.13518 -1.96328,-0.25547 -3.68471,-0.6831 -7.26807,-1.8288 -10.90235,-2.74297 -5.61314,-3.27715 -8.07991,-3.6188 -11.27109,-9.3539 -1.06934,-1.92181 -1.69458,-4.08982 -2.12344,-6.24688 -1.58625,-7.97854 0.34623,-16.098428 2.14844,-23.82656 0.90898,-2.900884 1.7212,-5.834216 2.72656,-8.703124 1.72635,-4.926352 3.94383,-10.096024 6.21563,-14.814844 1.35947,-2.823892 2.39644,-4.864116 4.10625,-7.310936 0.3583,-0.512752 0.77713,-0.980812 1.16562,-1.471096 0.88676,-1.119136 1.81499,-1.569484 2.58594,-1.55078 z m 69.44844,63.128902 c -3.52787,-0.05 -7.77073,1.59547 -10.06016,2.26797 -8.5005,2.497 -16.83384,5.52419 -25.14531,8.59532 2.86823,0.11417 5.73414,0.2171 8.60078,0.30078 3.97038,-2.80561 7.5785,-5.32223 8.175,-5.74219 3.73611,-2.63041 6.39358,1.14445 2.65703,3.77422 -1.27417,0.89675 -2.55359,1.78648 -3.83203,2.67734 0.39646,0.17735 0.78414,0.30436 1.02187,0.5625 4.04083,-2.57929 8.11248,-5.27719 11.49844,-7.68047 2.06543,-1.466 4.01831,-3.08496 6.02735,-4.62734 1.11743,0.0702 4.41906,0.55033 3.35234,0.21016 -0.70518,-0.22489 -1.48119,-0.32676 -2.29531,-0.33829 z m -25.26094,15.85 c -0.68985,0.49106 -1.3801,0.98104 -2.06563,1.47813 -1.23022,0.89205 -2.2246,1.6449 -3.08671,2.31484 0.97755,-0.56478 1.95815,-1.12497 2.9289,-1.70078 1.06298,-0.63051 2.23456,-1.35239 3.38672,-2.05781 -0.39283,-0.0109 -0.77227,-0.0237 -1.16328,-0.0344 z" />
    </clipPath>
  </defs>
  <sodipodi:namedview
     id="namedview1"
     pagecolor="#505050"
     bordercolor="#ffffff"
     borderopacity="1"
     inkscape:showpageshadow="0"
     inkscape:pageopacity="0"
     inkscape:pagecheckerboard="1"
     inkscape:deskcolor="#505050"
     inkscape:zoom="1.2256"
     inkscape:cx="386.74935"
     inkscape:cy="189.703"
     inkscape:window-width="2560"
     inkscape:window-height="1351"
     inkscape:window-x="2391"
     inkscape:window-y="-9"
     inkscape:window-maximized="1"
     inkscape:current-layer="svg1" />
  <path
     id="path1"
     clip-path="url(#clipPath12)"
     style="fill:#ffffff;fill-opacity:1"
     d="m 75.1,0.49984375 c -37.578772,0 -48.932031,18.49496825 -48.932031,44.28281225 v 21.7625 H 0.5 V 97.127969 H 26.16875 V 191.06234 H 63.85 l 7.81e-4,-93.934371 H 92.25 L 95.025781,66.545156 H 63.852344 V 45.792031 c 0,-11.229934 5.214047,-15.292187 18.567969,-15.292187 H 95.525781 V 2.1021875 c 0,0 -12.477829,-1.60234375 -20.425781,-1.60234375 z M 120.95781,87.85375 c -0.0274,-0.05251 -0.003,0.124781 0.0273,0.175781 0.12154,0.205746 0.23753,0.416398 0.3539,0.626563 -0.1234,-0.269145 -0.24425,-0.539963 -0.38125,-0.802344 z"
     transform="translate(36.780495,1.4914081)" />
</svg>
