<?xml version="1.0" encoding="UTF-8" standalone="no"?>
<!-- Created with Inkscape (http://www.inkscape.org/) -->

<svg
   width="2300"
   height="811.9035"
   viewBox="0 0 608.5405 214.81725"
   version="1.1"
   id="svg1"
   xml:space="preserve"
   inkscape:version="1.3.2 (091e20e, 2023-11-25, custom)"
   sodipodi:docname="logo only my.svg"
   xmlns:inkscape="http://www.inkscape.org/namespaces/inkscape"
   xmlns:sodipodi="http://sodipodi.sourceforge.net/DTD/sodipodi-0.dtd"
   xmlns="http://www.w3.org/2000/svg"
   xmlns:svg="http://www.w3.org/2000/svg"><sodipodi:namedview
     id="namedview1"
     pagecolor="#505050"
     bordercolor="#ffffff"
     borderopacity="1"
     inkscape:showpageshadow="0"
     inkscape:pageopacity="0"
     inkscape:pagecheckerboard="1"
     inkscape:deskcolor="#505050"
     inkscape:document-units="px"
     inkscape:zoom="0.35811417"
     inkscape:cx="1156.0559"
     inkscape:cy="411.87982"
     inkscape:window-width="2560"
     inkscape:window-height="1351"
     inkscape:window-x="2391"
     inkscape:window-y="-9"
     inkscape:window-maximized="1"
     inkscape:current-layer="layer1" /><defs
     id="defs1" /><g
     inkscape:label="Vrstva 1"
     inkscape:groupmode="layer"
     id="layer1"><path
       style="display:inline;fill:#00d30b;fill-opacity:1"
       d="m 389.27958,197.68388 c -16.10912,-3.59948 -26.8988,-21.41627 -23.41056,-38.6574 5.37291,-26.55633 47.19437,-68.51508 92.237,-92.539781 2.8129,-1.500337 2.8129,-1.500337 3.62357,-5.66379 1.51292,-7.770142 2.49517,-16.005723 1.84686,-15.484828 -32.2525,25.913837 -50.15018,31.150007 -59.74989,17.480517 -2.97875,-4.241589 -3.78378,-7.535041 -4.77152,-19.520601 -0.52744,-6.400098 -0.45448,-6.28858 -3.45829,-5.285653 -7.63478,2.549137 -16.9873,8.84805 -41.65415,28.054028 -39.2339,30.54811 -55.28665,38.559628 -69.76183,34.816348 -9.82056,-2.539594 -14.2318,-8.347774 -18.05239,-23.76918 -2.25964,-9.120821 -2.60345,-9.859102 -4.50008,-9.663353 -4.60159,0.474927 -11.44907,5.177485 -27.33521,18.772662 -17.47983,14.959051 -24.72125,19.265441 -33.13226,19.703381 -8.38234,0.43646 -14.92604,-4.83521 -17.30976,-13.944902 -0.50467,-1.928661 -1.74024,-8.601572 -1.74024,-9.398456 0,-1.737993 -9.18662,6.352889 -20.90208,18.408978 -22.46007,23.11309 -26.96464,27.32511 -33.88887,31.68797 -12.84684,8.09461 -24.34564,4.84257 -28.366324,-8.02245 -0.827411,-2.64747 -1.340039,-5.90142 -2.028787,-12.87787 -1.127282,-11.41846 -1.799075,-13.183589 -5.017565,-13.183589 -5.389129,0 -14.840432,4.636839 -26.030712,12.770759 -8.043465,5.84658 -11.665094,6.42239 -15.922339,2.53151 -5.949052,-5.4371 -4.217598,-10.95164 5.636275,-17.951057 23.621249,-16.778687 40.54789,-20.273387 50.984862,-10.52641 5.46817,5.106671 7.37357,10.645006 8.85654,25.742907 0.7414,7.54814 0.42386,7.03877 3.19803,5.13014 4.56029,-3.13747 12.26477,-10.567 30.70473,-29.608921 21.16238,-21.853204 31.56597,-27.3722 41.83054,-22.19066 5.4543,2.753322 10.04125,12.537038 10.26433,21.893268 0.057,2.388601 7.11381,-2.467429 21.6922,-14.927043 23.41036,-20.007965 34.04181,-25.177984 44.84646,-21.808595 8.97574,2.79905 12.57822,8.187518 16.49353,24.670477 1.79811,7.569829 2.66083,8.80789 6.11716,8.778576 8.62743,-0.07317 21.75622,-8.101762 53.19471,-32.529923 38.48952,-29.906915 50.96355,-35.771883 63.22419,-29.726387 7.07437,3.488248 9.62926,9.123607 10.71945,23.64407 0.49109,6.54089 0.68034,7.345694 1.6717,7.108994 5.85076,-1.396947 16.92741,-8.374184 31.67093,-19.949662 10.71501,-8.412606 14.3011,-10.143768 19.25355,-9.294517 9.36152,1.605322 13.64306,12.399413 11.55276,29.125396 -0.13493,1.079721 -0.20776,2.0007 -0.16184,2.04662 0.0459,0.04592 7.4572,-3.91714 16.46951,-8.806801 19.23881,-10.438085 46.01997,-24.877445 49.558,-26.719745 7.27613,-3.788786 14.58574,0.359257 14.27575,8.101174 -0.18622,4.650686 -1.49986,6.056146 -9.74905,10.430485 -9.1474,4.850645 -74.95269,40.451099 -75.33368,40.755284 -0.0353,0.02817 -0.77369,2.482979 -1.6409,5.455122 -7.15576,24.524538 -17.65291,48.225978 -31.7473,71.682028 -19.41858,32.31662 -37.76609,46.94568 -54.25701,43.26088 z m 8.25668,-18.65104 c 14.62793,-5.55818 40.03626,-44.93554 54.35717,-84.241766 0.78895,-2.165421 1.39027,-3.98132 1.33626,-4.03533 -0.61102,-0.611013 -25.58099,18.009366 -32.99386,24.603876 -23.99057,21.34207 -38.67874,42.53045 -36.57257,52.75766 1.61618,7.84792 8.23679,13.05715 13.873,10.91556 z"
       id="path1" /></g></svg>
