<!--?xml version="1.0" standalone="no"?-->
              <svg id="sw-js-blob-svg" viewBox="0 0 100 100" xmlns="http://www.w3.org/2000/svg" version="1.1">
                    <defs> 
                        <linearGradient id="sw-gradient" x1="0" x2="1" y1="1" y2="0">
                            <stop id="stop1" stop-color="rgba(0, 211, 11, 1)" offset="0%"></stop>
                            <stop id="stop2" stop-color="rgba(0, 155.561, 8.11, 1)" offset="100%"></stop>
                        </linearGradient>
                    </defs>
                <path fill="url(#sw-gradient)" d="M19.8,-33C26.4,-30.5,33,-26.7,36.7,-21C40.5,-15.2,41.4,-7.6,41,-0.2C40.6,7.2,39,14.4,34.8,19.4C30.7,24.5,24.1,27.4,17.9,28.9C11.7,30.4,5.8,30.4,0.2,30.1C-5.5,29.9,-11.1,29.3,-16.5,27.3C-21.9,25.4,-27.2,22.1,-29.5,17.3C-31.8,12.5,-31.2,6.2,-32.6,-0.9C-34.1,-8,-37.7,-15.9,-35.5,-20.8C-33.2,-25.7,-25,-27.4,-18.1,-29.8C-11.3,-32.1,-5.6,-35,0.5,-35.9C6.6,-36.7,13.2,-35.6,19.8,-33Z" width="100%" height="100%" transform="translate(50 50)" stroke-width="0" style="transition: all 0.3s ease 0s;"></path>
              </svg>