<!--?xml version="1.0" standalone="no"?-->
              <svg id="sw-js-blob-svg" viewBox="0 0 100 100" xmlns="http://www.w3.org/2000/svg" version="1.1">
                    <defs> 
                        <linearGradient id="sw-gradient" x1="0" x2="1" y1="1" y2="0">
                            <stop id="stop1" stop-color="rgba(0, 211, 11, 1)" offset="0%"></stop>
                            <stop id="stop2" stop-color="rgba(0, 155.561, 8.11, 1)" offset="100%"></stop>
                        </linearGradient>
                    </defs>
                <path fill="url(#sw-gradient)" d="M21.7,-36.5C28,-33.8,33.2,-28,36.5,-21.4C39.8,-14.8,41.2,-7.4,39.7,-0.8C38.2,5.7,33.9,11.4,31,18.6C28.1,25.8,26.5,34.6,21.6,37.3C16.7,40.1,8.3,36.9,0.6,35.9C-7.2,35,-14.4,36.2,-19,33.2C-23.5,30.3,-25.4,23,-29.2,16.8C-32.9,10.5,-38.6,5.3,-39,-0.3C-39.5,-5.8,-34.7,-11.5,-31,-17.8C-27.2,-24.1,-24.5,-31,-19.6,-34.5C-14.6,-37.9,-7.3,-38,0.2,-38.3C7.6,-38.6,15.3,-39.1,21.7,-36.5Z" width="100%" height="100%" transform="translate(50 50)" stroke-width="0" style="transition: all 0.3s ease 0s;"></path>
              </svg>