<!--?xml version="1.0" standalone="no"?-->
              <svg id="sw-js-blob-svg" viewBox="0 0 100 100" xmlns="http://www.w3.org/2000/svg" version="1.1">
                    <defs> 
                        <linearGradient id="sw-gradient" x1="0" x2="1" y1="1" y2="0">
                            <stop id="stop1" stop-color="rgba(0, 211, 11, 1)" offset="0%"></stop>
                            <stop id="stop2" stop-color="rgba(0, 155.561, 8.11, 1)" offset="100%"></stop>
                        </linearGradient>
                    </defs>
                <path fill="url(#sw-gradient)" d="M17.4,-29.4C22.9,-26.9,28.1,-23.1,31.8,-17.9C35.6,-12.8,37.9,-6.4,39.5,0.9C41.1,8.3,42,16.5,39.3,23.5C36.7,30.5,30.5,36.3,23.3,37.3C16.2,38.3,8.1,34.6,1.2,32.5C-5.6,30.4,-11.3,29.8,-18,28.6C-24.8,27.3,-32.7,25.4,-38.1,20.5C-43.4,15.6,-46.3,7.8,-45.5,0.5C-44.7,-6.9,-40.3,-13.8,-34.6,-18.1C-28.8,-22.3,-21.7,-23.8,-15.8,-26C-9.8,-28.2,-4.9,-31.1,0.5,-32C5.9,-32.9,11.8,-31.8,17.4,-29.4Z" width="100%" height="100%" transform="translate(50 50)" stroke-width="0" style="transition: all 0.3s ease 0s;"></path>
              </svg>