<?xml version="1.0" encoding="UTF-8" standalone="no"?>
<!-- Created with Inkscape (http://www.inkscape.org/) -->

<svg
   width="1000"
   height="800"
   viewBox="0 0 264.58283 211.66777"
   version="1.1"
   id="svg1"
   xml:space="preserve"
   inkscape:version="1.3.2 (091e20e, 2023-11-25, custom)"
   sodipodi:docname="logo bricks black.svg"
   inkscape:export-filename="logo bricks black.png"
   inkscape:export-xdpi="96"
   inkscape:export-ydpi="96"
   xmlns:inkscape="http://www.inkscape.org/namespaces/inkscape"
   xmlns:sodipodi="http://sodipodi.sourceforge.net/DTD/sodipodi-0.dtd"
   xmlns="http://www.w3.org/2000/svg"
   xmlns:svg="http://www.w3.org/2000/svg"><sodipodi:namedview
     id="namedview1"
     pagecolor="#505050"
     bordercolor="#ffffff"
     borderopacity="1"
     inkscape:showpageshadow="0"
     inkscape:pageopacity="0"
     inkscape:pagecheckerboard="1"
     inkscape:deskcolor="#505050"
     inkscape:document-units="px"
     inkscape:zoom="0.71622832"
     inkscape:cx="342.06969"
     inkscape:cy="381.86147"
     inkscape:window-width="2560"
     inkscape:window-height="1351"
     inkscape:window-x="2391"
     inkscape:window-y="-9"
     inkscape:window-maximized="1"
     inkscape:current-layer="layer1" /><defs
     id="defs1"><rect
       x="742.42289"
       y="860.89463"
       width="120.44627"
       height="31.592464"
       id="rect4" /></defs><g
     inkscape:label="Vrstva 1"
     inkscape:groupmode="layer"
     id="layer1"><g
       id="g1"
       inkscape:label="cubes original"
       style="display:none"
       transform="translate(-1.487807e-6,-44.316783)"><rect
         style="fill:#00c80b;fill-opacity:1;stroke:none;stroke-width:4.1063;stroke-linecap:round;stroke-linejoin:round;stroke-miterlimit:20;paint-order:stroke fill markers"
         id="rect1"
         width="92.431145"
         height="92.431145"
         x="35.402988"
         y="74.986649" /><rect
         style="fill:#868686;fill-opacity:1;stroke:none;stroke-width:4.10628;stroke-linecap:round;stroke-linejoin:round;stroke-miterlimit:20;paint-order:stroke fill markers"
         id="rect1-6"
         width="92.431145"
         height="92.431145"
         x="136.7487"
         y="74.778923" /><path
         style="display:inline;fill:#ffffff;fill-opacity:1;stroke-width:0.388005"
         d="m 165.27547,167.31961 c -6.25042,-1.39661 -10.43687,-8.30962 -9.08342,-14.99926 2.08472,-10.304 18.31166,-26.5842 35.78843,-35.90591 1.09141,-0.58214 1.09141,-0.58214 1.40596,-2.19758 0.58702,-3.01485 0.96814,-6.2103 0.71659,-6.00819 -12.51413,10.0547 -19.45852,12.08636 -23.18326,6.78253 -1.15577,-1.64576 -1.46812,-2.92363 -1.85137,-7.57409 -0.20465,-2.48327 -0.17634,-2.44 -1.34184,-2.05086 -2.96233,0.98908 -6.59115,3.43309 -16.16202,10.8851 -15.22295,11.85282 -21.4515,14.96133 -27.06794,13.50892 -3.81042,-0.98537 -5.52201,-3.23898 -7.00442,-9.22256 -0.87675,-3.53893 -1.01015,-3.82538 -1.74605,-3.74943 -1.78544,0.18427 -4.4423,2.00889 -10.6062,7.28389 -6.782265,5.80418 -9.591975,7.47508 -12.855489,7.64501 -3.25239,0.16935 -5.79138,-1.87609 -6.716278,-5.41069 -0.195814,-0.74833 -0.675221,-3.33746 -0.675221,-3.64665 0,-0.67435 -3.564455,2.46495 -8.110113,7.14277 -8.71462,8.96799 -10.462416,10.60228 -13.149052,12.29509 -4.984639,3.14076 -9.446231,1.87894 -11.006277,-3.11275 -0.32104,-1.02723 -0.519942,-2.28978 -0.787179,-4.99667 -0.437392,-4.43042 -0.698051,-5.1153 -1.946841,-5.1153 -2.091009,0 -5.758162,1.79911 -10.100047,4.95512 -3.120905,2.2685 -4.526116,2.49192 -6.177948,0.98223 -2.308262,-2.10962 -1.63645,-4.24929 2.186903,-6.9651 9.165164,-6.51021 15.732786,-7.86617 19.782383,-4.0843 2.121678,1.98142 2.860983,4.13032 3.436382,9.98838 0.287667,2.92872 0.16446,2.73108 1.240852,1.99052 1.769416,-1.21735 4.758793,-4.10005 11.91359,-11.48841 8.21111,-8.47915 12.247756,-10.62055 16.230456,-8.61009 2.1163,1.06831 3.89606,4.86444 3.98262,8.4947 0.0221,0.92679 2.760194,-0.95737 8.416689,-5.79177 9.08334,-7.76319 13.20839,-9.76918 17.40065,-8.46184 3.48263,1.08604 4.88041,3.1768 6.39957,9.57227 0.69768,2.93713 1.03242,3.4175 2.37349,3.40613 3.34749,-0.0284 8.44153,-3.14352 20.63982,-12.62177 14.93413,-11.604039 19.77411,-13.879676 24.5313,-11.533993 2.74489,1.353463 3.73621,3.540003 4.1592,9.174023 0.19055,2.53789 0.26398,2.85016 0.64863,2.75832 2.27013,-0.54202 6.56792,-3.24922 12.28848,-7.74057 4.15748,-3.264132 5.5489,-3.935832 7.47048,-3.606318 3.63231,0.622873 5.29357,4.811038 4.48253,11.300798 -0.0524,0.41894 -0.0806,0.77628 -0.0628,0.7941 0.0178,0.0178 2.89343,-1.51987 6.39025,-3.41708 7.46476,-4.05003 17.85598,-9.652576 19.22876,-10.367397 2.82317,-1.470069 5.65934,0.139393 5.53906,3.143297 -0.0722,1.80449 -0.58195,2.34981 -3.78268,4.04708 -3.54924,1.88207 -29.08202,15.69523 -29.22985,15.81326 -0.0137,0.0109 -0.30019,0.9634 -0.63667,2.11661 -2.77648,9.51564 -6.84942,18.71192 -12.31812,27.81299 -7.5345,12.53902 -14.65343,18.21517 -21.05199,16.78544 z m 3.20363,-7.23669 c 5.67571,-2.15661 15.53427,-17.43523 21.09086,-32.68624 0.30612,-0.84019 0.53943,-1.54477 0.51847,-1.56573 -0.23707,-0.23707 -9.92555,6.98773 -12.80178,9.54643 -9.30846,8.28083 -15.00755,16.50204 -14.19034,20.47024 0.62709,3.04504 3.19592,5.06624 5.38279,4.2353 z"
         id="path1" /></g><text
       xml:space="preserve"
       style="font-style:normal;font-variant:normal;font-weight:normal;font-stretch:normal;font-size:49.6459px;font-family:Momcake;-inkscape-font-specification:Momcake;letter-spacing:1.52685px;word-spacing:0px;display:none;fill:#000000;fill-opacity:1;stroke-width:0.438052"
       x="27.273077"
       y="183.19992"
       id="text1"
       inkscape:label="text1"><tspan
         sodipodi:role="line"
         id="tspan1"
         style="font-style:normal;font-variant:normal;font-weight:normal;font-stretch:normal;font-size:49.6459px;font-family:'Cambai Minimalist';-inkscape-font-specification:'Cambai Minimalist';letter-spacing:1.52685px;word-spacing:0px;fill:#000000;fill-opacity:1;stroke-width:0.438052"
         x="0"
         y="2.1166799"
         rotate="0 0 0 0 0 0"
         dy="0"
         dx="0">SALON</tspan></text><path
       style="-inkscape-font-specification:'Cambai Minimalist';fill:#000000;fill-opacity:1;stroke:#000000;stroke-width:1.31248;stroke-dasharray:none;stroke-opacity:1"
       d="m 48.11744,132.42908 q 0.78805,-0.14775 3.102941,-0.14775 3.102944,0 3.940248,0.197 4.67904,1.13283 7.683476,3.84175 3.053691,2.70893 3.792485,6.94468 0.0985,0.78804 0.0985,0.8373 0,0.44328 -0.788049,0.44328 l -0.689544,0.0493 -0.246265,-1.28058 q -0.886556,-4.23577 -4.137257,-6.64915 -3.20145,-2.46265 -8.077502,-2.90594 -0.492531,-0.0493 -1.477593,-0.0493 -3.299955,0 -6.30439,1.28058 -3.004437,1.23131 -4.777549,3.15217 -2.610411,2.75817 -2.610411,6.25514 0,2.75818 1.576097,5.22084 1.576099,2.46264 4.285017,3.84173 2.511906,1.32984 8.619286,2.11788 5.46709,0.73881 7.978995,1.97014 2.167135,1.1328 3.84174,3.2507 1.723856,2.06861 2.364147,4.48201 0.34477,1.37909 0.34477,2.70893 0,1.08357 -0.246265,2.16715 -0.788049,3.59545 -3.69398,6.25513 -3.496966,3.20145 -9.259574,3.74324 -1.280579,0.0985 -1.92087,0.0985 -4.728295,0 -8.668539,-2.06863 -3.940245,-2.0194 -5.614848,-5.41784 -1.231328,-2.36415 -1.231328,-4.33427 v -0.44328 h 1.526845 l 0.04926,0.68954 q 0.295519,2.51191 1.576099,4.38352 0.394026,0.64029 1.329832,1.5761 0.98506,0.93581 1.674604,1.42833 3.792485,2.61042 9.259575,2.61042 5.319331,0 8.964058,-2.46266 1.871616,-1.23131 2.708919,-2.5119 1.970123,-2.85668 1.970123,-5.81185 0,-1.72388 -0.64029,-3.34922 -0.492532,-1.28058 -1.625351,-2.70892 -1.132822,-1.42833 -2.265641,-2.21637 -1.477592,-0.98507 -3.102944,-1.47761 -1.625351,-0.49252 -5.417835,-1.03431 -4.974561,-0.68953 -7.04319,-1.37908 -3.004435,-0.98507 -5.220824,-3.10294 -2.216388,-2.11789 -3.201449,-4.97457 -0.344771,-0.93581 -0.394025,-2.85666 v -0.78807 q 0,-2.16713 0.935809,-3.98949 3.004436,-6.10737 11.032686,-7.58498 z m 28.603938,33.63984 q 3.152196,-8.373 7.092441,-18.91317 3.989499,-10.58941 5.565597,-14.72667 0.246265,0 0.738794,0.0493 0.492531,0.0493 0.738798,0.0493 l 0.935807,2.41341 q 1.674604,4.43277 6.156632,16.49976 4.531283,12.067 7.634223,20.39078 3.1522,8.37301 3.1522,8.42227 0,0.14777 -0.68955,0.14777 -0.78804,0 -0.9358,-0.14777 -0.24625,-0.49252 -0.8373,-2.1179 -0.78806,-2.21637 -6.84618,-18.17436 -6.008874,-16.00725 -6.747671,-18.07588 -0.443277,-1.23133 -1.034314,-2.70892 -0.541782,-1.52684 -0.886555,-2.36414 -0.295519,-0.8373 -0.344771,-0.98506 -0.197012,-0.54179 -0.246264,-0.54179 -0.04927,0 -0.147759,0.14777 -0.0985,0.197 -3.595474,9.40733 -2.758173,7.33869 -5.811862,15.36695 -3.004436,8.02826 -4.728295,12.46102 -1.674602,4.43278 -1.970121,5.27008 l -0.886555,2.46267 h -0.837301 q -0.788051,0 -0.788051,-0.14777 l 0.689544,-1.77311 q 0.640289,-1.77313 2.019376,-5.46709 1.379084,-3.69398 2.610411,-6.94469 z m 40.917262,14.18489 v -47.92322 h 1.52683 v 46.39638 h 22.65641 v 1.52684 z m 47.51717,-45.7561 q -1.28058,-0.2955 -3.64474,-0.34477 h -1.0343 q -2.01939,0 -4.18653,0.59105 -4.43278,1.23132 -7.83122,4.23576 -3.34921,3.00442 -5.31934,7.09244 -2.3149,4.82678 -2.3149,10.5894 0,3.20144 0.59104,5.56561 1.62536,6.4029 6.05813,10.93418 4.48203,4.58052 10.83567,5.71335 1.03433,0.19702 2.01938,0.19702 0.197,0 0.64029,-0.0493 0.44328,0 0.78805,0 3.54623,-0.0985 6.79692,-1.47759 5.12233,-2.16713 8.52077,-6.79692 3.44772,-4.67904 4.33428,-10.63867 0.19701,-1.18206 0.19701,-3.98948 0,-2.06865 -0.14775,-3.10296 -0.83731,-5.61483 -4.088,-10.14613 -3.20146,-4.58053 -7.8805,-6.89542 -1.57609,-0.78805 -4.33426,-1.4776 z m -6.84619,-1.77311 q 1.03433,-0.14776 2.85667,-0.14776 1.82238,0 2.85669,0.14776 6.79692,1.03434 11.82074,6.05812 5.8611,5.86113 7.04318,14.67742 0.14776,1.03431 0.14776,2.06863 0,0.24628 -0.0494,0.78806 0,0.54178 0,0.93579 -0.0493,3.10294 -0.7388,5.76262 -1.82237,7.04321 -6.99394,12.01774 -5.17158,4.97457 -12.51028,5.46711 -0.64028,0.0493 -1.82236,0.0493 -3.10294,0 -6.20589,-1.03432 -5.0238,-1.6746 -8.86554,-5.86112 -3.79249,-4.1865 -5.41785,-9.75211 -0.9358,-3.1522 -0.98505,-6.5999 v -1.23134 q 0,-2.61041 0.44329,-4.67905 1.72384,-8.57002 8.22524,-14.08636 4.62978,-3.74324 10.19539,-4.58055 z m 34.12028,-0.19701 q 0.39404,-0.14776 0.59104,-0.14776 0.0494,0 0.0985,0 0.0493,0 0.0985,0.0493 0.0493,0 0.0985,0.0493 0.0493,0.0493 0.0985,0.0985 0.0493,0.0493 0.0985,0.14775 0.0985,0.0493 0.14776,0.14776 0.0494,0.0494 0.14776,0.14777 0.0985,0.0985 0.14776,0.24626 0.0985,0.0985 0.19702,0.24626 0.14775,0.14778 0.24626,0.29553 13.98786,18.51914 20.93255,27.77874 l 11.57446,15.4162 0.0493,-1.03433 q 0.0985,-1.18207 0.0985,-22.16386 l -0.0493,-21.12956 h 1.42834 l 0.0985,4.67903 q 0,0.29552 0,3.29995 0.0493,3.00444 0.0493,5.51635 0,2.01938 -0.0493,6.99394 0,4.9253 0,7.63422 l -0.0985,18.76542 q -0.19702,0.0985 -0.64029,0.19702 -0.39404,0.14776 -0.59103,0.197 -0.0985,-0.14777 -1.08359,-1.42833 -0.9358,-1.23133 -2.51189,-3.34922 -1.57609,-2.11788 -3.59548,-4.72829 -1.97013,-2.65967 -4.62979,-6.20588 -2.65968,-3.54621 -5.31932,-7.09244 l -16.49989,-22.06548 q -0.0492,7.53571 -0.0492,22.60715 0,15.02219 -0.0493,22.5579 h -1.52686 v -47.57845 z"
       id="text4"
       inkscape:label="text1"
       aria-label="SALON" /><g
       id="g3"
       inkscape:label="cubes"
       style="display:inline"
       transform="translate(-1.95e-5,-44.316783)"><path
         id="rect2"
         style="display:inline;fill:#00c80b;fill-opacity:1;stroke:none;stroke-width:4.1063;stroke-linecap:round;stroke-linejoin:round;stroke-miterlimit:20;paint-order:stroke fill markers"
         d="m 35.402769,74.986793 v 53.166537 c 0.138913,-0.1037 0.251062,-0.20258 0.39946,-0.30799 9.165155,-6.5102 15.732766,-7.86639 19.782359,-4.08453 2.121675,1.98142 2.861102,4.13054 3.4365,9.98859 0.287667,2.92872 0.164367,2.73115 1.240758,1.99059 1.769414,-1.21735 4.758757,-4.10041 11.913547,-11.48876 8.211101,-8.47915 12.247922,-10.62032 16.230618,-8.60986 2.116298,1.06831 3.896164,4.86436 3.982724,8.49462 0.0221,0.92679 2.760095,-0.95753 8.416585,-5.79193 9.08333,-7.76318 13.20832,-9.76888 17.40058,-8.46154 3.48262,1.08604 4.88048,3.17661 6.39964,9.57207 0.69768,2.93713 1.03244,3.41739 2.37351,3.40602 0.26554,-0.002 0.56506,-0.0601 0.85525,-0.10284 V 74.986793 Z m 80.343321,41.801287 c -1.78544,0.18427 -4.44224,2.00935 -10.60613,7.28434 -6.782258,5.80418 -9.592102,7.47461 -12.855612,7.64454 -3.252387,0.16935 -5.791524,-1.87596 -6.716421,-5.41055 -0.195814,-0.74833 -0.674898,-3.33764 -0.674898,-3.64683 0,-0.67435 -3.564488,2.46546 -8.110142,7.14327 -8.714611,8.96798 -10.462503,10.60212 -13.149136,12.29492 -4.984634,3.14076 -9.44606,1.87869 -11.006104,-3.113 -0.32104,-1.02723 -0.520316,-2.28973 -0.787553,-4.99662 -0.437392,-4.43042 -0.697873,-5.11496 -1.946662,-5.11496 -2.091006,0 -5.75833,1.79876 -10.100211,4.95476 -1.993817,1.44925 -3.285462,2.05546 -4.390452,1.91669 v 31.67317 H 127.8343 v -37.35606 c -1.17297,0.0835 -2.26733,-0.0245 -3.3378,-0.30127 -3.81041,-0.98537 -5.52185,-3.23917 -7.00426,-9.22274 -0.87675,-3.53893 -1.01025,-3.82561 -1.74615,-3.74966 z" /><path
         id="rect3"
         style="display:inline;fill:#868686;fill-opacity:1;stroke:none;stroke-width:4.10628;stroke-linecap:round;stroke-linejoin:round;stroke-miterlimit:20;paint-order:stroke fill markers"
         d="m 136.74853,74.779052 v 43.514368 c 2.83746,-1.92991 6.36357,-4.55262 10.8702,-8.05433 14.93411,-11.604029 19.77426,-13.879922 24.53144,-11.534242 2.74489,1.353462 3.73647,3.540152 4.15946,9.174162 0.19055,2.53789 0.26389,2.85035 0.64854,2.75851 2.27013,-0.54202 6.56765,-3.24931 12.28821,-7.74066 4.15747,-3.264126 5.5488,-3.936028 7.47038,-3.606515 3.63231,0.622873 5.29399,4.811425 4.48295,11.301175 -0.0524,0.41894 -0.0808,0.77594 -0.063,0.79376 0.0178,0.0178 2.89352,-1.51966 6.39034,-3.41687 7.46475,-4.05002 17.85612,-9.652556 19.2289,-10.367376 0.83595,-0.43529 1.66302,-0.572567 2.42415,-0.511599 V 74.779052 Z m 92.43153,29.633488 c -0.23806,0.13114 -0.3913,0.23197 -0.66818,0.37879 -3.54923,1.88207 -29.08206,15.69504 -29.22989,15.81307 -0.0137,0.0109 -0.30018,0.96347 -0.63666,2.11668 -2.77647,9.51563 -6.84896,18.71186 -12.31765,27.81292 -5.87198,9.77222 -11.48989,15.35561 -16.71277,16.67607 h 59.56515 z m -60.7811,0.76068 c -0.16444,0.02 -0.38094,0.096 -0.67231,0.19327 -2.96233,0.98908 -6.59103,3.43266 -16.16189,10.88467 -6.29866,4.90423 -11.00346,8.24196 -14.81623,10.44851 v 40.5104 h 28.14055 c -6.03218,-1.59215 -10.02214,-8.34085 -8.69719,-14.88961 2.08472,-10.30399 18.31195,-26.58431 35.7887,-35.90601 1.09141,-0.58214 1.09106,-0.58237 1.40561,-2.19781 0.58702,-3.01484 0.9683,-6.21004 0.71675,-6.00793 -12.51411,10.05469 -19.45846,12.08639 -23.1832,6.78257 -1.15577,-1.64576 -1.46833,-2.9238 -1.85158,-7.57426 -0.15348,-1.86245 -0.17588,-2.30373 -0.66921,-2.2438 z m 21.68923,20.65776 c -0.23707,-0.23707 -9.92513,6.98754 -12.80135,9.54624 -9.30845,8.28082 -15.00763,16.50198 -14.19042,20.47017 0.62708,3.04504 3.19577,5.06637 5.38264,4.23543 5.6757,-2.15661 15.53423,-17.43504 21.09081,-32.68603 0.30612,-0.84019 0.53928,-1.54485 0.51832,-1.56581 z" /></g></g></svg>
