<?xml version="1.0" encoding="UTF-8" standalone="no"?>
<!-- Created with Inkscape (http://www.inkscape.org/) -->

<svg
   width="1000"
   height="800"
   viewBox="0 0 264.58283 211.66777"
   version="1.1"
   id="svg1"
   xml:space="preserve"
   inkscape:version="1.3.2 (091e20e, 2023-11-25, custom)"
   sodipodi:docname="logo bricks black.svg"
   inkscape:export-filename="logo bricks black.png"
   inkscape:export-xdpi="96"
   inkscape:export-ydpi="96"
   xmlns:inkscape="http://www.inkscape.org/namespaces/inkscape"
   xmlns:sodipodi="http://sodipodi.sourceforge.net/DTD/sodipodi-0.dtd"
   xmlns="http://www.w3.org/2000/svg"
   xmlns:svg="http://www.w3.org/2000/svg"><sodipodi:namedview
     id="namedview1"
     pagecolor="#505050"
     bordercolor="#ffffff"
     borderopacity="1"
     inkscape:showpageshadow="0"
     inkscape:pageopacity="0"
     inkscape:pagecheckerboard="1"
     inkscape:deskcolor="#505050"
     inkscape:document-units="px"
     inkscape:zoom="1.0128998"
     inkscape:cx="284.33217"
     inkscape:cy="316.41827"
     inkscape:window-width="2560"
     inkscape:window-height="1351"
     inkscape:window-x="2391"
     inkscape:window-y="-9"
     inkscape:window-maximized="1"
     inkscape:current-layer="layer1" /><defs
     id="defs1"><rect
       x="742.42289"
       y="860.89463"
       width="120.44627"
       height="31.592464"
       id="rect4" /></defs><g
     inkscape:label="Vrstva 1"
     inkscape:groupmode="layer"
     id="layer1"><g
       id="g1"
       inkscape:label="cubes original"
       style="display:none"
       transform="matrix(1.0498893,0,0,1.0498893,-6.5999277,-52.274074)"><rect
         style="fill:#00c80b;fill-opacity:1;stroke:none;stroke-width:3.89787;stroke-linecap:round;stroke-linejoin:round;stroke-miterlimit:20;paint-order:stroke fill markers"
         id="rect1"
         width="87.739479"
         height="87.739479"
         x="40.320904"
         y="78.61998" /><rect
         style="fill:#868686;fill-opacity:1;stroke:none;stroke-width:3.89785;stroke-linecap:round;stroke-linejoin:round;stroke-miterlimit:20;paint-order:stroke fill markers"
         id="rect1-6"
         width="87.739479"
         height="87.739479"
         x="136.52245"
         y="78.422798" /><path
         style="display:inline;fill:#ffffff;fill-opacity:1;stroke-width:0.388005"
         d="m 165.27547,167.31961 c -6.25042,-1.39661 -10.43687,-8.30962 -9.08342,-14.99926 2.08472,-10.304 18.31166,-26.5842 35.78843,-35.90591 1.09141,-0.58214 1.09141,-0.58214 1.40596,-2.19758 0.58702,-3.01485 0.96814,-6.2103 0.71659,-6.00819 -12.51413,10.0547 -19.45852,12.08636 -23.18326,6.78253 -1.15577,-1.64576 -1.46812,-2.92363 -1.85137,-7.57409 -0.20465,-2.48327 -0.17634,-2.44 -1.34184,-2.05086 -2.96233,0.98908 -6.59115,3.43309 -16.16202,10.8851 -15.22295,11.85282 -21.4515,14.96133 -27.06794,13.50892 -3.81042,-0.98537 -5.52201,-3.23898 -7.00442,-9.22256 -0.87675,-3.53893 -1.01015,-3.82538 -1.74605,-3.74943 -1.78544,0.18427 -4.4423,2.00889 -10.6062,7.28389 -6.782265,5.80418 -9.591975,7.47508 -12.855489,7.64501 -3.25239,0.16935 -5.79138,-1.87609 -6.716278,-5.41069 -0.195814,-0.74833 -0.675221,-3.33746 -0.675221,-3.64665 0,-0.67435 -3.564455,2.46495 -8.110113,7.14277 -8.71462,8.96799 -10.462416,10.60228 -13.149052,12.29509 -4.984639,3.14076 -9.446231,1.87894 -11.006277,-3.11275 -0.32104,-1.02723 -0.519942,-2.28978 -0.787179,-4.99667 -0.437392,-4.43042 -0.698051,-5.1153 -1.946841,-5.1153 -2.091009,0 -5.758162,1.79911 -10.100047,4.95512 -3.120905,2.2685 -4.526116,2.49192 -6.177948,0.98223 -2.308262,-2.10962 -1.63645,-4.24929 2.186903,-6.9651 9.165164,-6.51021 15.732786,-7.86617 19.782383,-4.0843 2.121678,1.98142 2.860983,4.13032 3.436382,9.98838 0.287667,2.92872 0.16446,2.73108 1.240852,1.99052 1.769416,-1.21735 4.758793,-4.10005 11.91359,-11.48841 8.21111,-8.47915 12.247756,-10.62055 16.230456,-8.61009 2.1163,1.06831 3.89606,4.86444 3.98262,8.4947 0.0221,0.92679 2.760194,-0.95737 8.416689,-5.79177 9.08334,-7.76319 13.20839,-9.76918 17.40065,-8.46184 3.48263,1.08604 4.88041,3.1768 6.39957,9.57227 0.69768,2.93713 1.03242,3.4175 2.37349,3.40613 3.34749,-0.0284 8.44153,-3.14352 20.63982,-12.62177 14.93413,-11.604039 19.77411,-13.879676 24.5313,-11.533993 2.74489,1.353463 3.73621,3.540003 4.1592,9.174023 0.19055,2.53789 0.26398,2.85016 0.64863,2.75832 2.27013,-0.54202 6.56792,-3.24922 12.28848,-7.74057 4.15748,-3.264132 5.5489,-3.935832 7.47048,-3.606318 3.63231,0.622873 5.29357,4.811038 4.48253,11.300798 -0.0524,0.41894 -0.0806,0.77628 -0.0628,0.7941 0.0178,0.0178 2.89343,-1.51987 6.39025,-3.41708 7.46476,-4.05003 17.85598,-9.652576 19.22876,-10.367397 2.82317,-1.470069 5.65934,0.139393 5.53906,3.143297 -0.0722,1.80449 -0.58195,2.34981 -3.78268,4.04708 -3.54924,1.88207 -29.08202,15.69523 -29.22985,15.81326 -0.0137,0.0109 -0.30019,0.9634 -0.63667,2.11661 -2.77648,9.51564 -6.84942,18.71192 -12.31812,27.81299 -7.5345,12.53902 -14.65343,18.21517 -21.05199,16.78544 z m 3.20363,-7.23669 c 5.67571,-2.15661 15.53427,-17.43523 21.09086,-32.68624 0.30612,-0.84019 0.53943,-1.54477 0.51847,-1.56573 -0.23707,-0.23707 -9.92555,6.98773 -12.80178,9.54643 -9.30846,8.28083 -15.00755,16.50204 -14.19034,20.47024 0.62709,3.04504 3.19592,5.06624 5.38279,4.2353 z"
         id="path1" /></g><text
       xml:space="preserve"
       style="font-style:normal;font-variant:normal;font-weight:normal;font-stretch:normal;font-size:49.6459px;font-family:Momcake;-inkscape-font-specification:Momcake;letter-spacing:1.52685px;word-spacing:0px;display:none;fill:#000000;fill-opacity:1;stroke-width:0.438052"
       x="27.273077"
       y="183.60086"
       id="text1"
       inkscape:label="text1"><tspan
         sodipodi:role="line"
         id="tspan1"
         style="font-style:normal;font-variant:normal;font-weight:normal;font-stretch:normal;font-size:49.6459px;font-family:'Cambai Minimalist';-inkscape-font-specification:'Cambai Minimalist';letter-spacing:1.52685px;word-spacing:0px;fill:#000000;fill-opacity:1;stroke-width:0.438052"
         x="0"
         y="0.40093768"
         rotate="0 0 0 0 0 0"
         dy="0"
         dx="0">SALON</tspan></text><path
       style="-inkscape-font-specification:'Cambai Minimalist';fill:#000000;fill-opacity:1;stroke:#000000;stroke-width:1.30644;stroke-dasharray:none;stroke-opacity:1"
       d="m 48.504759,133.05437 q 0.784425,-0.14707 3.088668,-0.14707 3.088671,0 3.922124,0.1961 4.657518,1.12762 7.648135,3.82408 3.039645,2.69647 3.775041,6.91274 0.09805,0.78442 0.09805,0.83344 0,0.44125 -0.784425,0.44125 l -0.686372,0.0491 -0.245132,-1.27469 q -0.882479,-4.21629 -4.118227,-6.61857 -3.186725,-2.45132 -8.040349,-2.89257 -0.490265,-0.0491 -1.470795,-0.0491 -3.284777,0 -6.275393,1.27469 -2.990617,1.22566 -4.755573,3.13768 -2.598404,2.74548 -2.598404,6.22637 0,2.74548 1.568847,5.19682 1.568849,2.45131 4.265307,3.82406 2.500352,1.32373 8.57964,2.10814 5.441944,0.73541 7.942294,1.96107 2.157167,1.1276 3.82407,3.23575 1.715926,2.0591 2.353273,4.4614 0.343184,1.37274 0.343184,2.69647 0,1.07859 -0.245132,2.15718 -0.784425,3.57891 -3.676989,6.22636 -3.480882,3.18672 -9.216983,3.72602 -1.274689,0.098 -1.912035,0.098 -4.706546,0 -8.628667,-2.05911 -3.922121,-2.01011 -5.589021,-5.39291 -1.225664,-2.35328 -1.225664,-4.31434 v -0.44124 h 1.519822 l 0.04904,0.68637 q 0.29416,2.50035 1.56885,4.36335 0.392213,0.63734 1.323714,1.56885 0.98053,0.93151 1.666902,1.42176 3.775041,2.59842 9.216984,2.59842 5.294864,0 8.922826,-2.45133 1.863007,-1.22566 2.696459,-2.50036 1.961061,-2.84353 1.961061,-5.78511 0,-1.71595 -0.637345,-3.33381 -0.490266,-1.27469 -1.617875,-2.69646 -1.127611,-1.42176 -2.255219,-2.20618 -1.470796,-0.98054 -3.088671,-1.47081 -1.617876,-0.49025 -5.392915,-1.02955 -4.95168,-0.68636 -7.010794,-1.37274 -2.990616,-0.98054 -5.19681,-3.08867 -2.206193,-2.10815 -3.186724,-4.95168 -0.343185,-0.93151 -0.392212,-2.84353 v -0.78444 q 0,-2.15716 0.931504,-3.97114 2.990617,-6.07928 10.98194,-7.5501 z m 28.472369,33.48511 q 3.137697,-8.33448 7.059818,-18.82618 3.971149,-10.54069 5.539997,-14.65893 0.245133,0 0.735396,0.0491 0.490266,0.0491 0.7354,0.0491 l 0.931503,2.40232 q 1.6669,4.41237 6.128313,16.42386 4.510445,12.0115 7.599115,20.29699 3.13769,8.3345 3.13769,8.38352 0,0.1471 -0.68637,0.1471 -0.78441,0 -0.9315,-0.1471 -0.24511,-0.49025 -0.83345,-2.10815 -0.78443,-2.20618 -6.814688,-18.09076 -5.981236,-15.93363 -6.716634,-17.99275 -0.441239,-1.22566 -1.029557,-2.69645 -0.53929,-1.51982 -0.882478,-2.35327 -0.294159,-0.83345 -0.343185,-0.98052 -0.196105,-0.5393 -0.245131,-0.5393 -0.04905,0 -0.147079,0.14709 -0.09805,0.19609 -3.578936,9.36405 -2.745486,7.30494 -5.78513,15.29628 -2.990616,7.99133 -4.706546,12.40369 -1.666899,4.4124 -1.961059,5.24584 l -0.882476,2.45135 h -0.83345 q -0.784427,0 -0.784427,-0.1471 l 0.686372,-1.76495 q 0.637345,-1.76497 2.010088,-5.44194 1.372741,-3.67698 2.598404,-6.91275 z m 40.729062,14.11964 v -47.70278 h 1.5198 v 46.18297 h 22.5522 v 1.51981 z m 47.2986,-45.54563 q -1.27469,-0.29414 -3.62798,-0.34318 h -1.02954 q -2.0101,0 -4.16727,0.58833 -4.41239,1.22566 -7.7952,4.21627 -3.3338,2.99061 -5.29487,7.05982 -2.30426,4.80458 -2.30426,10.54069 0,3.18672 0.58833,5.54002 1.61788,6.37344 6.03027,10.88388 4.46141,4.55945 10.78582,5.68707 1.02957,0.19612 2.01009,0.19612 0.1961,0 0.63734,-0.0491 0.44125,0 0.78443,0 3.52993,-0.098 6.76566,-1.4708 5.09877,-2.15716 8.48158,-6.76565 3.43186,-4.65752 4.31434,-10.58974 0.19611,-1.17661 0.19611,-3.97113 0,-2.05912 -0.14707,-3.08868 -0.83347,-5.58901 -4.0692,-10.09946 -3.18673,-4.55947 -7.84425,-6.8637 -1.56885,-0.78443 -4.31433,-1.47081 z m -6.8147,-1.76495 q 1.02957,-0.14708 2.84353,-0.14708 1.814,0 2.84356,0.14708 6.76565,1.02958 11.76636,6.03026 5.83414,5.83416 7.01079,14.6099 0.14707,1.02955 0.14707,2.05911 0,0.24515 -0.0492,0.78444 0,0.53929 0,0.93149 -0.0491,3.08866 -0.7354,5.73611 -1.81398,7.01082 -6.96177,11.96246 -5.1478,4.95169 -12.45273,5.44196 -0.63734,0.0491 -1.81398,0.0491 -3.08867,0 -6.17735,-1.02956 -5.00069,-1.6669 -8.82476,-5.83416 -3.77504,-4.16725 -5.39293,-9.70726 -0.93149,-3.1377 -0.98052,-6.56954 v -1.22568 q 0,-2.5984 0.44125,-4.65753 1.71591,-8.5306 8.18741,-14.02156 4.60849,-3.72603 10.14849,-4.55948 z m 33.96334,-0.19611 q 0.39222,-0.14707 0.58832,-0.14707 0.0492,0 0.098,0 0.0491,0 0.098,0.0491 0.0491,0 0.098,0.0491 0.0491,0.0491 0.098,0.098 0.0491,0.0491 0.098,0.14707 0.098,0.0491 0.14708,0.14708 0.0492,0.0492 0.14708,0.14709 0.098,0.098 0.14708,0.24513 0.098,0.098 0.19611,0.24512 0.14707,0.14711 0.24513,0.29417 13.92352,18.43396 20.83627,27.65097 l 11.52122,15.34529 0.0491,-1.02957 q 0.098,-1.17663 0.098,-22.06192 l -0.0491,-21.03237 h 1.42178 l 0.098,4.65751 q 0,0.29416 0,3.28477 0.0491,2.99063 0.0491,5.49098 0,2.01009 -0.0491,6.96176 0,4.90265 0,7.59911 l -0.098,18.67911 q -0.19612,0.098 -0.63735,0.19611 -0.39223,0.14708 -0.58832,0.1961 -0.098,-0.14709 -1.0786,-1.42176 -0.93149,-1.22567 -2.50034,-3.33382 -1.56883,-2.10814 -3.57894,-4.70654 -1.96106,-2.64744 -4.60849,-6.17734 -2.64745,-3.52989 -5.29485,-7.05982 l -16.42379,-21.96401 q -0.049,7.50105 -0.049,22.50317 0,14.95309 -0.0491,22.45413 h -1.51984 v -47.3596 z"
       id="text4"
       inkscape:label="text1"
       aria-label="SALON" /><g
       id="g3"
       inkscape:label="cubes"
       style="display:inline"
       transform="matrix(1.0498893,0,0,1.0498893,-6.5999277,-52.274074)"><path
         id="rect2"
         style="display:inline;fill:#00c80b;fill-opacity:1;stroke:none;stroke-width:3.89787;stroke-linecap:round;stroke-linejoin:round;stroke-miterlimit:20;paint-order:stroke fill markers"
         d="m 40.32084,78.619778 v 46.353482 c 6.826455,-3.897 11.918556,-4.33637 15.263748,-1.21233 2.121675,1.98141 2.861102,4.13053 3.4365,9.98859 0.287667,2.92871 0.164367,2.73063 1.240758,1.99007 1.769414,-1.21735 4.758757,-4.0999 11.913547,-11.48825 8.211101,-8.47914 12.247922,-10.62031 16.230618,-8.60986 2.116298,1.06831 3.896164,4.86436 3.982724,8.49462 0.0221,0.92679 2.760095,-0.95753 8.416585,-5.79193 9.08333,-7.76318 13.20832,-9.76888 17.40058,-8.46154 3.48262,1.08604 4.88048,3.17661 6.39964,9.57208 0.69768,2.93712 1.03244,3.41738 2.37351,3.40601 0.33565,-0.003 0.70491,-0.0615 1.08108,-0.12971 V 78.619778 Z m 75.42525,38.168412 c -1.78544,0.18427 -4.44224,2.00884 -10.60613,7.28383 -6.782258,5.80417 -9.592102,7.47512 -12.855612,7.64505 -3.252387,0.16935 -5.791524,-1.87595 -6.716421,-5.41055 -0.195814,-0.74833 -0.674898,-3.33763 -0.674898,-3.64682 0,-0.67435 -3.564488,2.46493 -8.110142,7.14275 -8.714611,8.96798 -10.462503,10.60263 -13.149136,12.29544 -4.984634,3.14075 -9.44606,1.87868 -11.006104,-3.11301 -0.32104,-1.02723 -0.520316,-2.28973 -0.787553,-4.99662 -0.437392,-4.43041 -0.697873,-5.11547 -1.946662,-5.11547 -2.002493,0 -5.470757,1.68707 -9.572592,4.59871 v 32.88808 h 87.73929 V 130.035 c -1.25763,0.11486 -2.42591,0.0193 -3.56363,-0.27492 -3.81041,-0.98537 -5.52185,-3.23866 -7.00426,-9.22223 -0.87675,-3.53893 -1.01025,-3.82561 -1.74615,-3.74966 z" /><path
         id="rect3"
         style="display:inline;fill:#868686;fill-opacity:1;stroke:none;stroke-width:3.89785;stroke-linecap:round;stroke-linejoin:round;stroke-miterlimit:20;paint-order:stroke fill markers"
         d="m 136.52219,78.422889 v 40.024641 c 2.87465,-1.94286 6.47093,-4.61416 11.09654,-8.20833 14.93411,-11.604026 19.77426,-13.879919 24.53144,-11.534239 2.74489,1.353459 3.73647,3.540149 4.15946,9.174169 0.19055,2.53788 0.26389,2.85034 0.64854,2.7585 2.27013,-0.54202 6.56765,-3.24931 12.28821,-7.74065 4.15747,-3.264134 5.5488,-3.936035 7.47038,-3.606522 3.63231,0.622873 5.29399,4.810912 4.48295,11.300662 -0.0524,0.41894 -0.0808,0.77645 -0.063,0.79427 0.0178,0.0178 2.89352,-1.51966 6.39034,-3.41686 6.4966,-3.52475 13.6792,-7.39152 16.73498,-9.022755 V 78.422889 Z m 31.87677,26.750441 c -0.16444,0.02 -0.38094,0.0955 -0.67231,0.19276 -2.96233,0.98908 -6.59103,3.43318 -16.16189,10.88518 -6.42666,5.00389 -11.1913,8.37288 -15.04257,10.5746 v 39.33631 h 25.79701 c -4.53937,-2.57039 -7.25305,-8.27744 -6.12731,-13.84161 2.08472,-10.30399 18.31195,-26.5843 35.7887,-35.906 1.09141,-0.58214 1.09106,-0.58237 1.40561,-2.19781 0.58702,-3.01485 0.9683,-6.21005 0.71675,-6.00794 -12.51411,10.05469 -19.45846,12.0864 -23.1832,6.78257 -1.15577,-1.64576 -1.46833,-2.9238 -1.85158,-7.57425 -0.15348,-1.86245 -0.17588,-2.30374 -0.66921,-2.24381 z m 55.86303,1.91721 c -7.64056,4.11046 -24.85366,13.4131 -24.98,13.51397 -0.0137,0.0109 -0.30018,0.96347 -0.63666,2.11668 -2.77647,9.51563 -6.84896,18.71186 -12.31765,27.81292 -4.86974,8.10428 -9.56466,13.32314 -14.00491,15.62807 h 51.93922 z m -34.1738,18.74056 c -0.23707,-0.23707 -9.92513,6.98754 -12.80135,9.54623 -9.30845,8.28082 -15.00763,16.50198 -14.19042,20.47018 0.62708,3.04503 3.19577,5.06636 5.38264,4.23542 5.6757,-2.15661 15.53423,-17.43504 21.09081,-32.68603 0.30612,-0.84019 0.53928,-1.54484 0.51832,-1.5658 z" /></g></g></svg>
