<?xml version="1.0" encoding="UTF-8" standalone="no"?>
<!-- Created with Inkscape (http://www.inkscape.org/) -->

<svg
   width="1000"
   height="800"
   viewBox="0 0 264.58283 211.66777"
   version="1.1"
   id="svg1"
   xml:space="preserve"
   inkscape:version="1.3.2 (091e20e, 2023-11-25, custom)"
   sodipodi:docname="logo_bricks_white.svg"
   inkscape:export-filename="logo bricks black.png"
   inkscape:export-xdpi="96"
   inkscape:export-ydpi="96"
   xmlns:inkscape="http://www.inkscape.org/namespaces/inkscape"
   xmlns:sodipodi="http://sodipodi.sourceforge.net/DTD/sodipodi-0.dtd"
   xmlns="http://www.w3.org/2000/svg"
   xmlns:svg="http://www.w3.org/2000/svg"><sodipodi:namedview
     id="namedview1"
     pagecolor="#505050"
     bordercolor="#ffffff"
     borderopacity="1"
     inkscape:showpageshadow="0"
     inkscape:pageopacity="0"
     inkscape:pagecheckerboard="1"
     inkscape:deskcolor="#505050"
     inkscape:document-units="px"
     inkscape:zoom="1.0128998"
     inkscape:cx="377.13503"
     inkscape:cy="406.25934"
     inkscape:window-width="2560"
     inkscape:window-height="1351"
     inkscape:window-x="2391"
     inkscape:window-y="-9"
     inkscape:window-maximized="1"
     inkscape:current-layer="layer1" /><defs
     id="defs1"><rect
       x="742.42289"
       y="860.89463"
       width="120.44627"
       height="31.592464"
       id="rect4" /></defs><g
     inkscape:label="Vrstva 1"
     inkscape:groupmode="layer"
     id="layer1"><g
       id="g1"
       inkscape:label="cubes original"
       style="display:none"
       transform="matrix(1.0498893,0,0,1.0498893,-6.5999277,-52.274074)"><rect
         style="fill:#00c80b;fill-opacity:1;stroke:none;stroke-width:3.89787;stroke-linecap:round;stroke-linejoin:round;stroke-miterlimit:20;paint-order:stroke fill markers"
         id="rect1"
         width="87.739479"
         height="87.739479"
         x="40.320904"
         y="78.61998" /><rect
         style="fill:#868686;fill-opacity:1;stroke:none;stroke-width:3.89785;stroke-linecap:round;stroke-linejoin:round;stroke-miterlimit:20;paint-order:stroke fill markers"
         id="rect1-6"
         width="87.739479"
         height="87.739479"
         x="136.52245"
         y="78.422798" /><path
         style="display:inline;fill:#ffffff;fill-opacity:1;stroke-width:0.388005"
         d="m 165.27547,167.31961 c -6.25042,-1.39661 -10.43687,-8.30962 -9.08342,-14.99926 2.08472,-10.304 18.31166,-26.5842 35.78843,-35.90591 1.09141,-0.58214 1.09141,-0.58214 1.40596,-2.19758 0.58702,-3.01485 0.96814,-6.2103 0.71659,-6.00819 -12.51413,10.0547 -19.45852,12.08636 -23.18326,6.78253 -1.15577,-1.64576 -1.46812,-2.92363 -1.85137,-7.57409 -0.20465,-2.48327 -0.17634,-2.44 -1.34184,-2.05086 -2.96233,0.98908 -6.59115,3.43309 -16.16202,10.8851 -15.22295,11.85282 -21.4515,14.96133 -27.06794,13.50892 -3.81042,-0.98537 -5.52201,-3.23898 -7.00442,-9.22256 -0.87675,-3.53893 -1.01015,-3.82538 -1.74605,-3.74943 -1.78544,0.18427 -4.4423,2.00889 -10.6062,7.28389 -6.782265,5.80418 -9.591975,7.47508 -12.855489,7.64501 -3.25239,0.16935 -5.79138,-1.87609 -6.716278,-5.41069 -0.195814,-0.74833 -0.675221,-3.33746 -0.675221,-3.64665 0,-0.67435 -3.564455,2.46495 -8.110113,7.14277 -8.71462,8.96799 -10.462416,10.60228 -13.149052,12.29509 -4.984639,3.14076 -9.446231,1.87894 -11.006277,-3.11275 -0.32104,-1.02723 -0.519942,-2.28978 -0.787179,-4.99667 -0.437392,-4.43042 -0.698051,-5.1153 -1.946841,-5.1153 -2.091009,0 -5.758162,1.79911 -10.100047,4.95512 -3.120905,2.2685 -4.526116,2.49192 -6.177948,0.98223 -2.308262,-2.10962 -1.63645,-4.24929 2.186903,-6.9651 9.165164,-6.51021 15.732786,-7.86617 19.782383,-4.0843 2.121678,1.98142 2.860983,4.13032 3.436382,9.98838 0.287667,2.92872 0.16446,2.73108 1.240852,1.99052 1.769416,-1.21735 4.758793,-4.10005 11.91359,-11.48841 8.21111,-8.47915 12.247756,-10.62055 16.230456,-8.61009 2.1163,1.06831 3.89606,4.86444 3.98262,8.4947 0.0221,0.92679 2.760194,-0.95737 8.416689,-5.79177 9.08334,-7.76319 13.20839,-9.76918 17.40065,-8.46184 3.48263,1.08604 4.88041,3.1768 6.39957,9.57227 0.69768,2.93713 1.03242,3.4175 2.37349,3.40613 3.34749,-0.0284 8.44153,-3.14352 20.63982,-12.62177 14.93413,-11.604039 19.77411,-13.879676 24.5313,-11.533993 2.74489,1.353463 3.73621,3.540003 4.1592,9.174023 0.19055,2.53789 0.26398,2.85016 0.64863,2.75832 2.27013,-0.54202 6.56792,-3.24922 12.28848,-7.74057 4.15748,-3.264132 5.5489,-3.935832 7.47048,-3.606318 3.63231,0.622873 5.29357,4.811038 4.48253,11.300798 -0.0524,0.41894 -0.0806,0.77628 -0.0628,0.7941 0.0178,0.0178 2.89343,-1.51987 6.39025,-3.41708 7.46476,-4.05003 17.85598,-9.652576 19.22876,-10.367397 2.82317,-1.470069 5.65934,0.139393 5.53906,3.143297 -0.0722,1.80449 -0.58195,2.34981 -3.78268,4.04708 -3.54924,1.88207 -29.08202,15.69523 -29.22985,15.81326 -0.0137,0.0109 -0.30019,0.9634 -0.63667,2.11661 -2.77648,9.51564 -6.84942,18.71192 -12.31812,27.81299 -7.5345,12.53902 -14.65343,18.21517 -21.05199,16.78544 z m 3.20363,-7.23669 c 5.67571,-2.15661 15.53427,-17.43523 21.09086,-32.68624 0.30612,-0.84019 0.53943,-1.54477 0.51847,-1.56573 -0.23707,-0.23707 -9.92555,6.98773 -12.80178,9.54643 -9.30846,8.28083 -15.00755,16.50204 -14.19034,20.47024 0.62709,3.04504 3.19592,5.06624 5.38279,4.2353 z"
         id="path1" /></g><text
       xml:space="preserve"
       style="font-style:normal;font-variant:normal;font-weight:normal;font-stretch:normal;font-size:49.6459px;font-family:Momcake;-inkscape-font-specification:Momcake;letter-spacing:1.52685px;word-spacing:0px;display:none;fill:#000000;fill-opacity:1;stroke-width:0.438052"
       x="27.273077"
       y="183.60086"
       id="text1"
       inkscape:label="text1"><tspan
         sodipodi:role="line"
         id="tspan1"
         style="font-style:normal;font-variant:normal;font-weight:normal;font-stretch:normal;font-size:49.6459px;font-family:'Cambai Minimalist';-inkscape-font-specification:'Cambai Minimalist';letter-spacing:1.52685px;word-spacing:0px;fill:#000000;fill-opacity:1;stroke-width:0.438052"
         x="0"
         y="0.40093768"
         rotate="0 0 0 0 0 0"
         dy="0"
         dx="0">SALON</tspan></text><path
       style="-inkscape-font-specification:'Cambai Minimalist';fill:#ffffff;fill-opacity:1;stroke:#ffffff;stroke-width:1.77033;stroke-dasharray:none;stroke-opacity:1"
       d="m 18.753979,142.7197 q 1.062956,-0.1993 4.185384,-0.1993 4.185389,0 5.314781,0.26574 6.311298,1.52801 10.363815,5.18192 4.118954,3.65393 5.115473,9.36729 0.132866,1.06296 0.132866,1.12939 0,0.59792 -1.062957,0.59792 l -0.930088,0.0665 -0.332171,-1.72731 q -1.195829,-5.7134 -5.580518,-8.96868 -4.318259,-3.32173 -10.895295,-3.91965 -0.664346,-0.0665 -1.99304,-0.0665 -4.451127,0 -8.503644,1.7273 -4.052517,1.66086 -6.4441689,4.2518 -3.5210385,3.72034 -3.5210385,8.43721 0,3.72034 2.1259092,7.0421 2.1259118,3.32171 5.7798212,5.1819 3.38817,1.79375 11.626076,2.85669 7.374256,0.99654 10.762423,2.6574 2.923128,1.52799 5.18191,4.38469 2.325213,2.79024 3.188867,6.04554 0.465041,1.86017 0.465041,3.65393 0,1.46157 -0.332173,2.92315 -1.062956,4.84969 -4.982604,8.43719 -4.716865,4.31826 -12.489726,5.04905 -1.727302,0.13279 -2.590955,0.13279 -6.377733,0 -11.692511,-2.79025 -5.3147775,-2.72385 -7.5735559,-7.3078 -1.6608696,-3.18888 -1.6608696,-5.84627 v -0.59791 h 2.0594764 l 0.066453,0.93008 q 0.3986096,3.38817 2.1259132,5.91268 0.5314789,0.86365 1.7937349,2.12591 1.3286943,1.26227 2.258781,1.9266 5.115473,3.52106 12.489726,3.52106 7.174951,0 12.091121,-3.32174 2.524518,-1.66087 3.65391,-3.38818 2.65739,-3.85321 2.65739,-7.83928 0,-2.32524 -0.863652,-4.51757 -0.664349,-1.72731 -2.192346,-3.65392 -1.528001,-1.92658 -3.055996,-2.98953 -1.993043,-1.32872 -4.185389,-1.99307 -2.192347,-0.66433 -7.307817,-1.39512 -6.70991,-0.93007 -9.500168,-1.86016 -4.052517,-1.32872 -7.0420799,-4.1854 -2.9895624,-2.8567 -4.3182577,-6.70991 -0.4650422,-1.26226 -0.5314776,-3.85319 v -1.06298 q 0,-2.92312 1.26226,-5.38121 4.0525174,-8.23789 14.8813782,-10.23097 z m 38.582263,45.37492 q 4.251823,-11.29387 9.5666,-25.51094 5.381215,-14.28345 7.507125,-19.86398 0.332174,0 0.996519,0.0665 0.664348,0.0665 0.996523,0.0665 l 1.262259,3.25533 q 2.258778,5.9791 8.304338,22.2556 6.112002,16.27651 10.297389,27.50399 4.251815,11.2939 4.251815,11.36031 0,0.19934 -0.930086,0.19934 -1.062936,0 -1.262255,-0.19934 -0.332143,-0.66432 -1.129389,-2.8567 -1.062964,-2.98954 -9.234429,-24.51438 -8.105038,-21.5913 -9.101559,-24.38156 -0.597914,-1.66087 -1.39513,-3.65391 -0.73078,-2.05947 -1.195826,-3.18886 -0.398608,-1.12939 -0.465043,-1.32868 -0.265737,-0.7308 -0.332171,-0.7308 -0.06646,0 -0.199303,0.19932 -0.132866,0.26572 -4.849736,12.68902 -3.720346,9.89875 -7.839299,20.72764 -4.052516,10.82888 -6.377734,16.80797 -2.258777,5.97913 -2.657387,7.10851 l -1.195822,3.32177 h -1.12939 q -1.062959,0 -1.062959,-0.19934 l 0.930087,-2.39164 q 0.863652,-2.39167 2.723825,-7.37425 1.86017,-4.98258 3.521038,-9.36731 z m 55.191028,19.1332 v -64.64095 h 2.05945 v 62.58148 h 30.55997 v 2.05947 z m 64.09327,-61.71786 q -1.7273,-0.39858 -4.9162,-0.46503 h -1.3951 q -2.72384,0 -5.64697,0.79724 -5.97914,1.66086 -10.56311,5.71337 -4.51755,4.0525 -7.17495,9.5666 -3.12246,6.51058 -3.12246,14.28344 0,4.31826 0.79724,7.50716 2.19235,8.63651 8.17148,14.7485 6.04556,6.17841 14.61562,7.70642 1.39516,0.26576 2.72384,0.26576 0.26572,0 0.86364,-0.0665 0.59793,0 1.06295,0 4.78334,-0.1328 9.168,-1.99305 6.90923,-2.92312 11.4932,-9.16798 4.65044,-6.31129 5.84626,-14.34992 0.26575,-1.59439 0.26575,-5.38118 0,-2.79026 -0.19929,-4.18541 -1.12942,-7.57354 -5.51408,-13.68554 -4.31827,-6.17844 -10.62957,-9.30084 -2.12592,-1.06297 -5.84625,-1.99306 z m -9.23445,-2.39164 q 1.39516,-0.1993 3.85321,-0.1993 2.45811,0 3.85324,0.1993 9.16798,1.39517 15.94433,8.17147 7.90571,7.90574 9.50016,19.79755 0.19929,1.39512 0.19929,2.79025 0,0.33219 -0.0667,1.06298 0,0.73077 0,1.26224 -0.0665,4.18537 -0.99653,7.77287 -2.45808,9.5002 -9.43374,16.21006 -6.97566,6.70992 -16.87441,7.37428 -0.86364,0.0665 -2.45808,0.0665 -4.18539,0 -8.37079,-1.39513 -6.77632,-2.25877 -11.95824,-7.90573 -5.11547,-5.64696 -7.30782,-13.15409 -1.26225,-4.25183 -1.32868,-8.90224 v -1.66089 q 0,-3.52104 0.59791,-6.31131 2.3252,-11.55963 11.09458,-19.0003 6.24486,-5.04907 13.75199,-6.17845 z m 46.02296,-0.26574 q 0.53148,-0.1993 0.79721,-0.1993 0.0666,0 0.1328,0 0.0665,0 0.1328,0.0665 0.0665,0 0.1328,0.0665 0.0665,0.0665 0.1328,0.13279 0.0665,0.0665 0.13279,0.1993 0.1328,0.0665 0.19931,0.19929 0.0667,0.0667 0.19931,0.19933 0.13279,0.1328 0.1993,0.33216 0.1328,0.1328 0.26575,0.33216 0.19928,0.19935 0.33216,0.39863 18.86745,24.97943 28.23476,37.4692 l 15.61215,20.79406 0.0665,-1.39515 q 0.13279,-1.59443 0.13279,-29.8956 l -0.0665,-28.5005 h 1.92662 l 0.1328,6.31129 q 0,0.39861 0,4.45111 0.0665,4.05254 0.0665,7.44071 0,2.72382 -0.0665,9.43372 0,6.64347 0,10.29739 l -0.1328,25.31163 q -0.26576,0.1328 -0.86366,0.26574 -0.53151,0.19931 -0.79722,0.26574 -0.13279,-0.19932 -1.46159,-1.9266 -1.26224,-1.66088 -3.38816,-4.51758 -2.12588,-2.85669 -4.84974,-6.37773 -2.65738,-3.58748 -6.24486,-8.37077 -3.58749,-4.78328 -7.17492,-9.5666 l -22.25551,-29.76294 q -0.0664,10.1645 -0.0664,30.49354 0,20.2626 -0.0665,30.42708 h -2.0595 v -64.17584 z"
       id="text4"
       inkscape:label="text1"
       aria-label="SALON" /><g
       id="g3"
       inkscape:label="cubes"
       style="display:inline"
       transform="matrix(1.4226813,0,0,1.4226813,-55.917136,-108.41469)"><path
         id="rect2"
         style="display:inline;fill:#00c80b;fill-opacity:1;stroke:none;stroke-width:3.89787;stroke-linecap:round;stroke-linejoin:round;stroke-miterlimit:20;paint-order:stroke fill markers"
         d="m 40.32084,78.619778 v 46.353482 c 6.826455,-3.897 11.918556,-4.33637 15.263748,-1.21233 2.121675,1.98141 2.861102,4.13053 3.4365,9.98859 0.287667,2.92871 0.164367,2.73063 1.240758,1.99007 1.769414,-1.21735 4.758757,-4.0999 11.913547,-11.48825 8.211101,-8.47914 12.247922,-10.62031 16.230618,-8.60986 2.116298,1.06831 3.896164,4.86436 3.982724,8.49462 0.0221,0.92679 2.760095,-0.95753 8.416585,-5.79193 9.08333,-7.76318 13.20832,-9.76888 17.40058,-8.46154 3.48262,1.08604 4.88048,3.17661 6.39964,9.57208 0.69768,2.93712 1.03244,3.41738 2.37351,3.40601 0.33565,-0.003 0.70491,-0.0615 1.08108,-0.12971 V 78.619778 Z m 75.42525,38.168412 c -1.78544,0.18427 -4.44224,2.00884 -10.60613,7.28383 -6.782258,5.80417 -9.592102,7.47512 -12.855612,7.64505 -3.252387,0.16935 -5.791524,-1.87595 -6.716421,-5.41055 -0.195814,-0.74833 -0.674898,-3.33763 -0.674898,-3.64682 0,-0.67435 -3.564488,2.46493 -8.110142,7.14275 -8.714611,8.96798 -10.462503,10.60263 -13.149136,12.29544 -4.984634,3.14075 -9.44606,1.87868 -11.006104,-3.11301 -0.32104,-1.02723 -0.520316,-2.28973 -0.787553,-4.99662 -0.437392,-4.43041 -0.697873,-5.11547 -1.946662,-5.11547 -2.002493,0 -5.470757,1.68707 -9.572592,4.59871 v 32.88808 h 87.73929 V 130.035 c -1.25763,0.11486 -2.42591,0.0193 -3.56363,-0.27492 -3.81041,-0.98537 -5.52185,-3.23866 -7.00426,-9.22223 -0.87675,-3.53893 -1.01025,-3.82561 -1.74615,-3.74966 z" /><path
         id="rect3"
         style="display:inline;fill:#868686;fill-opacity:1;stroke:none;stroke-width:3.89785;stroke-linecap:round;stroke-linejoin:round;stroke-miterlimit:20;paint-order:stroke fill markers"
         d="m 136.52219,78.422889 v 40.024641 c 2.87465,-1.94286 6.47093,-4.61416 11.09654,-8.20833 14.93411,-11.604026 19.77426,-13.879919 24.53144,-11.534239 2.74489,1.353459 3.73647,3.540149 4.15946,9.174169 0.19055,2.53788 0.26389,2.85034 0.64854,2.7585 2.27013,-0.54202 6.56765,-3.24931 12.28821,-7.74065 4.15747,-3.264134 5.5488,-3.936035 7.47038,-3.606522 3.63231,0.622873 5.29399,4.810912 4.48295,11.300662 -0.0524,0.41894 -0.0808,0.77645 -0.063,0.79427 0.0178,0.0178 2.89352,-1.51966 6.39034,-3.41686 6.4966,-3.52475 13.6792,-7.39152 16.73498,-9.022755 V 78.422889 Z m 31.87677,26.750441 c -0.16444,0.02 -0.38094,0.0955 -0.67231,0.19276 -2.96233,0.98908 -6.59103,3.43318 -16.16189,10.88518 -6.42666,5.00389 -11.1913,8.37288 -15.04257,10.5746 v 39.33631 h 25.79701 c -4.53937,-2.57039 -7.25305,-8.27744 -6.12731,-13.84161 2.08472,-10.30399 18.31195,-26.5843 35.7887,-35.906 1.09141,-0.58214 1.09106,-0.58237 1.40561,-2.19781 0.58702,-3.01485 0.9683,-6.21005 0.71675,-6.00794 -12.51411,10.05469 -19.45846,12.0864 -23.1832,6.78257 -1.15577,-1.64576 -1.46833,-2.9238 -1.85158,-7.57425 -0.15348,-1.86245 -0.17588,-2.30374 -0.66921,-2.24381 z m 55.86303,1.91721 c -7.64056,4.11046 -24.85366,13.4131 -24.98,13.51397 -0.0137,0.0109 -0.30018,0.96347 -0.63666,2.11668 -2.77647,9.51563 -6.84896,18.71186 -12.31765,27.81292 -4.86974,8.10428 -9.56466,13.32314 -14.00491,15.62807 h 51.93922 z m -34.1738,18.74056 c -0.23707,-0.23707 -9.92513,6.98754 -12.80135,9.54623 -9.30845,8.28082 -15.00763,16.50198 -14.19042,20.47018 0.62708,3.04503 3.19577,5.06636 5.38264,4.23542 5.6757,-2.15661 15.53423,-17.43504 21.09081,-32.68603 0.30612,-0.84019 0.53928,-1.54484 0.51832,-1.5658 z" /></g></g></svg>
