<svg xmlns="http://www.w3.org/2000/svg" version="1.1" xmlns:xlink="http://www.w3.org/1999/xlink" xmlns:svgjs="http://svgjs.dev/svgjs" width="1920" height="1080" preserveAspectRatio="none" viewBox="0 0 1920 1080"><g mask="url(&quot;#SvgjsMask1008&quot;)" fill="none"><path d="M1080 219.86C1034.6 219.86 985.14 245.96 985.14 270C985.14 293.53 1034.3 315 1080 315C1114.85 315 1146.23 293.35 1146.23 270C1146.23 245.78 1115.15 219.86 1080 219.86" stroke="rgba(0, 0, 0, 1)" stroke-width="2"></path><path d="M1267.68 0C1323.55 21.49 1302.9 57.63 1350 103.85C1440.49 192.63 1459.05 176.52 1542.86 270C1594.05 327.1 1575.31 341.77 1620 405C1670.72 476.77 1677.46 471.99 1733.68 540C1812.46 635.29 1828.2 731.61 1890 731.61C1940.9 731.61 1959.07 635.1 1959.07 540C1959.07 454.44 1941.16 442.95 1890 370.29C1846.11 307.95 1804.35 336.49 1768.97 270C1705.83 151.35 1657.42 79.3 1692.97 0C1717.94 -55.7 1791.49 0 1890 0C1985.92 0 2012.67 -42.27 2081.84 0C2147.67 40.23 2135.19 79.29 2160 165C2174.27 214.29 2160 217.5 2160 270C2160 405 2160 405 2160 540C2160 652.21 2205.86 686.81 2160 764.42C2126.09 821.81 2000.45 769.23 2000.45 810C2000.45 862.22 2110.44 866.54 2160 950.4C2190.22 1001.54 2203.78 1058.98 2160 1080C2068.78 1123.78 2025 1080 1890 1080C1827 1080 1809.11 1114.37 1764 1080C1674.11 1011.51 1712.79 886.68 1620 874.29C1505.79 859.03 1483.02 946.33 1350 1024.7C1308.45 1049.18 1316.21 1070.71 1270.86 1080C1181.21 1098.36 1175.43 1080 1080 1080C945 1080 945 1080 810 1080C682.37 1080 674.5 1092.83 554.73 1080C539.5 1078.37 555.2 1051.07 540 1051.07C412.84 1051.07 405 1065.53 270 1080C270 1080 270 1080 270 1080C135 1080 67.5 1147.5 0 1080C-67.5 1012.5 0 945 0 810C0 675 0 675 0 540C0 405 0 405 0 270C0 135 -67.5 67.5 0 0C67.5 -67.5 135 0 270 0C405 0 405 0 540 0C675 0 675 0 810 0C945 0 945 0 1080 0C1173.84 0 1188.55 -30.44 1267.68 0" stroke="rgba(0, 0, 0, 1)" stroke-width="2"></path><path d="M810 775.16C793.84 775.16 772.76 795.15 772.76 810C772.76 822.21 792.69 829.29 810 829.29C821.7 829.29 830.77 821.13 830.77 810C830.77 794.07 822.85 775.16 810 775.16" stroke="rgba(0, 0, 0, 1)" stroke-width="2"></path><path d="M540 165.48C476.25 167.01 435.48 209.6 435.48 270C435.48 363.11 458 452.79 540 472.5C645.26 497.79 670.39 378.35 810 360C940.39 342.87 955.16 425.78 1080 401.54C1186.95 380.78 1178.6 338.19 1273.58 270C1313.6 241.27 1312.21 207.69 1350 207.69C1386.58 207.69 1398.91 229.4 1422.32 270C1494.71 395.55 1513.11 399.03 1541.61 540C1567.69 669.03 1583.73 700 1531.48 810C1487.93 901.69 1441.54 877.81 1350 943.37C1253.04 1012.81 1257.36 1027.94 1154.48 1080C1122.36 1096.26 1117.24 1080 1080 1080C945 1080 945 1080 810 1080C743.72 1080 677.45 1107.1 677.45 1080C677.45 1042.01 742.78 1013.92 810 949.82C884.35 878.92 960.58 890.71 960.58 810C960.58 694.51 903.16 557.42 810 557.42C692.87 557.42 675 683.71 540 810C540 810 540 810 540 810C405 868.3 382.87 842.81 270 926.59C201 977.81 244.42 1041.27 176.25 1080C109.42 1117.97 34.81 1133.32 0 1080C-53.32 998.32 0 945 0 810C0 675 0 675 0 540C0 405 0 405 0 270C0 135 -67.5 67.5 0 0C67.5 -67.5 135 0 270 0C405 0 405 0 540 0C675 0 675 0 810 0C945 0 945 0 1080 0C1132.68 0 1185.37 -24.3 1185.37 0C1185.37 37.42 1145.46 77.92 1080 123.43C957.77 208.42 948.81 250.19 810 261C678.81 271.22 663.51 162.51 540 165.48" stroke="rgba(0, 0, 0, 1)" stroke-width="2"></path><path d="M1890 190.98C1837.63 190.98 1784.19 64.32 1784.19 0C1784.19 -31.17 1837.1 0 1890 0C1941.51 0 1993.03 -30.74 1993.03 0C1993.03 64.75 1942.05 190.98 1890 190.98" stroke="rgba(0, 0, 0, 1)" stroke-width="2"></path><path d="M2037.56 540C2037.56 440.95 2127.17 329.4 2160 329.4C2188.39 329.4 2160 434.7 2160 540C2160 608.38 2186.14 676.75 2160 676.75C2124.92 676.75 2037.56 614.63 2037.56 540" stroke="rgba(0, 0, 0, 1)" stroke-width="2"></path><path d="M540 56.61C412.61 118.28 359.49 145.34 326.61 270C295.74 387.04 427.54 413.73 412.5 540C399.24 651.33 368.27 708.09 270 745.2C162.02 785.97 86.12 761.22 0 695.77C-48.88 658.62 0 617.88 0 540C0 405 0 405 0 270C0 135 -67.5 67.5 0 0C67.5 -67.5 135 0 270 0C405 0 405 0 540 0C675 0 675 0 810 0C945 0 945 0 1080 0C1091.53 0 1103.05 -5.31 1103.05 0C1103.05 8.19 1097.02 24.91 1080 27C950.49 42.91 944.84 28.61 810 36C674.84 43.41 654.31 1.28 540 56.61" stroke="rgba(0, 0, 0, 1)" stroke-width="2"></path><path d="M1890 26.34C1882.78 26.34 1875.41 8.87 1875.41 0C1875.41 -4.3 1882.7 0 1890 0C1897.11 0 1904.21 -4.24 1904.21 0C1904.21 8.93 1897.18 26.34 1890 26.34" stroke="rgba(0, 0, 0, 1)" stroke-width="2"></path><path d="M973.42 540C973.42 494.68 1023.76 488.08 1080 488.08C1189.55 488.08 1198.57 502.73 1305 540C1333.57 550 1338.04 554.75 1350 582.63C1395.95 689.75 1420.82 707.95 1420.82 810C1420.82 847.66 1390.96 862.05 1350 862.05C1235.55 862.05 1224.61 845.58 1110 810C1089.61 803.67 1089.79 797.6 1080 778.24C1021.5 662.6 973.42 639.76 973.42 540" stroke="rgba(0, 0, 0, 1)" stroke-width="2"></path><path d="M2116.05 540C2116.05 504.44 2148.21 464.4 2160 464.4C2170.19 464.4 2160 502.2 2160 540C2160 564.55 2169.38 589.09 2160 589.09C2147.41 589.09 2116.05 566.79 2116.05 540" stroke="rgba(0, 0, 0, 1)" stroke-width="2"></path><path d="M0 900C21.61 900 82.5 1016.47 82.5 1080C82.5 1106.47 12.96 1108.29 0 1080C-28.29 1018.29 -19.64 900 0 900" stroke="rgba(0, 0, 0, 1)" stroke-width="2"></path><path d="M800.18 1080C800.18 1077.19 803.65 1070.36 810 1070.36C833.1 1070.36 859.09 1077.57 859.09 1080C859.09 1082.39 834.55 1080 810 1080C805.09 1080 800.18 1082.01 800.18 1080" stroke="rgba(0, 0, 0, 1)" stroke-width="2"></path></g><defs><mask id="SvgjsMask1008"><rect width="1920" height="1080" fill="#ffffff"></rect></mask></defs></svg>