<!--?xml version="1.0" standalone="no"?-->
              <svg id="sw-js-blob-svg" viewBox="0 0 100 100" xmlns="http://www.w3.org/2000/svg" version="1.1">
                    <defs> 
                        <linearGradient id="sw-gradient" x1="0" x2="1" y1="1" y2="0">
                            <stop id="stop1" stop-color="rgba(0, 211, 11, 1)" offset="0%"></stop>
                            <stop id="stop2" stop-color="rgba(0, 155.561, 8.11, 1)" offset="100%"></stop>
                        </linearGradient>
                    </defs>
                <path fill="url(#sw-gradient)" d="M22.7,-38.3C29.5,-35.4,35.1,-29.5,39.1,-22.6C43,-15.7,45.3,-7.8,43.3,-1.2C41.3,5.5,35.1,11.1,29.6,15.4C24.1,19.6,19.5,22.7,14.7,28.1C9.9,33.4,4.9,41.2,-1.1,43.1C-7.1,44.9,-14.2,40.8,-20.9,36.6C-27.6,32.3,-34,27.8,-37.5,21.7C-41,15.5,-41.7,7.8,-39.5,1.3C-37.2,-5.2,-32.1,-10.4,-29.1,-17.3C-26,-24.3,-25,-32.9,-20.5,-37.2C-16,-41.5,-8,-41.4,0,-41.3C7.9,-41.3,15.9,-41.3,22.7,-38.3Z" width="100%" height="100%" transform="translate(50 50)" stroke-width="0" style="transition: all 0.3s ease 0s;"></path>
              </svg>