<!--?xml version="1.0" standalone="no"?-->
              <svg id="sw-js-blob-svg" viewBox="0 0 100 100" xmlns="http://www.w3.org/2000/svg" version="1.1">
                    <defs> 
                        <linearGradient id="sw-gradient" x1="0" x2="1" y1="1" y2="0">
                            <stop id="stop1" stop-color="rgba(68.009, 119.602, 0, 1)" offset="0%"></stop>
                            <stop id="stop2" stop-color="rgba(145, 255, 0, 1)" offset="100%"></stop>
                        </linearGradient>
                    </defs>
                <path fill="url(#sw-gradient)" d="M17.6,-29.1C22.9,-27.4,27.4,-22.9,32.1,-17.6C36.8,-12.3,41.7,-6.1,43,0.8C44.3,7.6,42,15.3,36.9,19.9C31.8,24.5,23.9,26.1,17.3,28.9C10.7,31.6,5.3,35.5,-0.7,36.7C-6.8,38,-13.6,36.7,-20.5,34.1C-27.4,31.5,-34.4,27.7,-37.6,21.8C-40.9,15.9,-40.3,8,-38.6,1C-36.8,-5.9,-33.8,-11.9,-30.5,-17.6C-27.2,-23.4,-23.5,-28.9,-18.4,-30.7C-13.3,-32.5,-6.6,-30.5,-0.2,-30.1C6.1,-29.6,12.3,-30.8,17.6,-29.1Z" width="100%" height="100%" transform="translate(50 50)" stroke-width="0" style="transition: all 0.3s ease 0s;" stroke="url(#sw-gradient)"></path>
              </svg>